<?xml version="1.0" encoding="utf-8"?>
<svg version="1.1" id="Layer_1"
xmlns="http://www.w3.org/2000/svg"
xmlns:xlink="http://www.w3.org/1999/xlink"
width="1024px" height="1024px"
xml:space="preserve">
<g id="PathID_1" transform="matrix(18.8008, 0, 0, 18.8008, 36.85, 19.85)" opacity="1">
<path style="fill:#EC0033;fill-opacity:1" d="M45.7 13.35L19.05 13.35L19.05 43.1Q19.05 47.1 16.25 49.85Q13.5 52.65 9.5 52.65Q5.55 52.65 2.8 49.85Q0 47.05 0 43.1Q0 39.15 2.8 36.35Q5.6 33.55 9.55 33.55Q11.1 33.55 13.15 34.2L13.15 0L45.7 0L45.7 13.35" />
</g>
<g id="PathID_2" transform="matrix(18.8008, 0, 0, 18.8008, 36.85, 19.85)" opacity="1">
</g>
<g id="PathID_3" transform="matrix(13.2686, 0, 0, 13.2686, 430.8, 391.1)" opacity="1">
<path style="fill:#759D00;fill-opacity:1" d="M40 10.4Q41.95 12.35 41.95 15.1Q41.95 17.8 40 19.75Q38.65 21.1 36.75 21.55L33.15 21.35L24.3 18.3L22.85 18.35L18.45 22.7L18.4 24.1L21.5 32.9Q22.1 34.65 21.7 36.45Q21.25 38.35 19.9 39.7Q17.95 41.6 15.2 41.6Q12.4 41.6 10.45 39.7L9.35 38.25L2.7 29.65Q0 26.95 0 23.15Q0 19.35 2.7 16.65Q5.65 13.75 9.7 14L14.1 9.65Q13.85 5.55 16.8 2.7Q19.5 0 23.35 0Q27.15 0 29.85 2.7L38.55 9.3L40 10.4M25.4 4.75Q24.55 5.6 24.55 6.75Q24.55 8 25.4 8.75Q26.25 9.6 27.4 9.6Q28.6 9.6 29.45 8.75Q30.3 8 30.3 6.75Q30.3 5.6 29.45 4.75Q28.65 3.95 27.45 3.95Q26.25 3.95 25.4 4.75M28.65 5.55Q29.15 6.15 29.15 6.75Q29.15 7.45 28.65 7.95Q28.15 8.45 27.4 8.45Q26.7 8.45 26.2 7.95Q25.7 7.45 25.7 6.75Q25.7 6.15 26.2 5.55Q26.75 5.05 27.45 5.05Q28.15 5.05 28.65 5.55M22.35 4.55Q22.85 5 22.85 5.75Q22.85 6.5 22.35 6.95Q21.9 7.45 21.15 7.45Q20.4 7.45 19.95 6.95Q19.45 6.5 19.45 5.75Q19.45 5 19.95 4.55Q20.45 4.05 21.15 4.05Q21.85 4.05 22.35 4.55M21.15 2.9Q20 2.9 19.15 3.75Q18.3 4.6 18.3 5.75Q18.3 6.95 19.15 7.75Q20 8.6 21.15 8.6Q22.35 8.6 23.2 7.75Q24 6.95 24 5.75Q24 4.65 23.2 3.75Q22.35 2.9 21.15 2.9M24.2 9.95Q23.35 9.15 22.15 9.15Q21 9.15 20.15 9.95Q19.35 10.8 19.35 11.95Q19.35 13.15 20.15 13.95Q21 14.8 22.15 14.8Q23.35 14.8 24.2 13.95Q25.05 13.15 25.05 11.95Q25.05 10.8 24.2 9.95M14.3 12.05L12.15 14.2Q11.8 14.5 11.8 14.95Q11.8 15.35 12.15 15.65Q12.45 15.95 12.9 15.95L13.6 15.65L15.75 13.5L16.05 12.8L15.75 12.05Q15.45 11.75 15.05 11.75Q14.6 11.75 14.3 12.05M5.8 17.4Q5 17.4 4.4 17.95L3.95 18.4Q3.4 18.95 3.4 19.8Q3.4 20.6 3.95 21.15L5.35 22.55L3.95 23.95Q3.4 24.5 3.4 25.3Q3.4 26.05 3.95 26.7L4.4 27.15Q5 27.7 5.8 27.7Q6.65 27.7 7.2 27.15L8.6 25.75L10 27.15Q10.55 27.7 11.4 27.7Q12.2 27.7 12.8 27.15L13.25 26.7Q13.8 26.15 13.8 25.35Q13.8 24.5 13.25 23.95L11.85 22.55L13.25 21.15Q13.8 20.6 13.8 19.8Q13.8 18.95 13.25 18.4L12.8 17.95Q12.2 17.4 11.4 17.4Q10.55 17.4 10 17.95L8.6 19.3L7.2 17.95Q6.65 17.4 5.8 17.4M4.5 19.8Q4.5 19.45 4.75 19.2L5.25 18.75Q5.8 18.15 6.4 18.75L8.6 20.95L10.8 18.75Q11.05 18.5 11.4 18.5L11.95 18.75L12.45 19.2L12.65 19.8L12.45 20.35L10.25 22.55L12.45 24.75Q13 25.3 12.45 25.9L11.95 26.35L11.4 26.6L10.8 26.35L8.6 24.15L6.4 26.35Q5.8 26.9 5.25 26.35L4.75 25.9L4.5 25.3L4.75 24.75L6.95 22.55L4.75 20.35L4.5 19.8" />
</g>
<g id="PathID_4" transform="matrix(13.2686, 0, 0, 13.2686, 430.8, 391.1)" opacity="1">
</g>
</svg>
